<?xml version="1.0" encoding="utf-8"?>
<!-- Generator: Adobe Illustrator 22.0.1, SVG Export Plug-In . SVG Version: 6.00 Build 0)  -->
<svg version="1.1" id="Capa_1" xmlns="http://www.w3.org/2000/svg" xmlns:xlink="http://www.w3.org/1999/xlink" x="0px" y="0px"
	 viewBox="0 0 124.8 124.8" style="enable-background:new 0 0 124.8 124.8;" xml:space="preserve">
<style type="text/css">
	.st0{fill:#F17022;}
</style>
<g>
	<path class="st0" d="M111.1,5.1c-1.8,0-3.5,0.3-5.2,1L86.3,14c-7.5-2.7-15.5-4.1-23.8-4.1c-8.2,0-16.2,1.4-23.8,4.1L19.1,6.1
		c-1.7-0.7-3.4-1-5.2-1C6.2,5.1,0,11.3,0,19l0.1,48.4c0,0.4,0,0.8,0,1.1c2.2,28.7,29.6,51.2,62.3,51.2c32.8,0,60.2-22.5,62.3-51.2
		c0-0.4,0-0.7,0-1.1l0.1-48.5C125,11.3,118.8,5.1,111.1,5.1z M108.9,67.3c-1.5,20.4-21.9,36.4-46.4,36.4c-24.4,0-44.8-16-46.4-36.4
		L16,22l17.4,7.1c3.2,1.3,6.9,1.4,10.1,0.2c6-2.2,12.3-3.4,18.9-3.4s13,1.1,19,3.4c3.2,1.2,6.9,1.2,10.1-0.2l17.4-7.1V67.3z"/>
	<circle class="st0" cx="42.3" cy="68.5" r="10"/>
	<circle class="st0" cx="82.7" cy="68.5" r="10"/>
</g>
</svg>
